HIERARCHY
ROOT hip
{
	OFFSET 0.000000 0.000000 0.000000 
	CHANNELS 6 Xposition Yposition Zposition Xrotation Zrotation Yrotation
	JOINT abdomen
	{
		OFFSET 0.000000 3.402643 0.000000 
		CHANNELS 3 Xrotation Zrotation Yrotation
		JOINT chest
		{
			OFFSET 0.000000 8.438565 -0.680529 
			CHANNELS 3 Xrotation Zrotation Yrotation
			JOINT neck
			{
				OFFSET 0.000000 10.207942 -0.272212 
				CHANNELS 3 Xrotation Zrotation Yrotation
				JOINT head
				{
					OFFSET 0.000000 3.130431 0.000000 
					CHANNELS 3 Xrotation Zrotation Yrotation
					End Site
					{
						OFFSET 0.000000 3.130435 0.000000 
					}
				}
			}
			JOINT lCollar
			{
				OFFSET 3.470700 6.669187 -0.816635 
				CHANNELS 3 Yrotation Zrotation Xrotation
				JOINT lShldr
				{
					OFFSET 3.198488 0.000000 0.000000 
					CHANNELS 3 Zrotation Yrotation Xrotation
					JOINT lForeArm
					{
						OFFSET 10.139888 0.000000 0.000000 
						CHANNELS 3 Yrotation Zrotation Xrotation
						JOINT lHand
						{
							OFFSET 8.370511 0.000000 0.000000 
							CHANNELS 3 Zrotation Yrotation Xrotation
							End Site
							{
								OFFSET 4.083176 0.000000 0.000000 
							}
						}
					}
				}
			}
			JOINT rCollar
			{
				OFFSET -3.470700 6.669187 -0.816635 
				CHANNELS 3 Yrotation Zrotation Xrotation
				JOINT rShldr
				{
					OFFSET -3.198488 0.000000 0.000000 
					CHANNELS 3 Zrotation Yrotation Xrotation
					JOINT rForeArm
					{
						OFFSET -10.139888 0.000000 0.000000 
						CHANNELS 3 Yrotation Zrotation Xrotation
						JOINT rHand
						{
							OFFSET -8.370511 0.000000 0.000000 
							CHANNELS 3 Zrotation Yrotation Xrotation
							End Site
							{
								OFFSET -4.083176 0.000000 0.000000 
							}
						}
					}
				}
			}
		}
	}
	JOINT lThigh
	{
		OFFSET 5.308129 -1.633274 1.361059 
		CHANNELS 3 Xrotation Zrotation Yrotation
		JOINT lShin
		{
			OFFSET -2.041588 -20.007561 0.000000 
			CHANNELS 3 Xrotation Zrotation Yrotation
			JOINT lFoot
			{
				OFFSET 0.000000 -19.190928 -1.224953 
				CHANNELS 3 Xrotation Yrotation Zrotation
				End Site
				{
					OFFSET 0.000000 -2.449906 4.627600 
				}
			}
		}
	}
	JOINT rThigh
	{
		OFFSET -5.308129 -1.633274 1.361059 
		CHANNELS 3 Xrotation Zrotation Yrotation
		JOINT rShin
		{
			OFFSET 2.041588 -20.007561 0.000000 
			CHANNELS 3 Xrotation Zrotation Yrotation
			JOINT rFoot
			{
				OFFSET 0.000000 -19.190928 -1.224953 
				CHANNELS 3 Xrotation Yrotation Zrotation
				End Site
				{
					OFFSET 0.000000 -2.449906 4.627600 
				}
			}
		}
	}
}
MOTION
Frames: 9
Frame Time: 0.033333
0.144252 31.240767 -0.649232 4.309416 -16.985874 78.023956 0.000000 0.000000 0.000000 -0.507900 -1.064411 6.220372 6.253873 -2.011868 -0.173155 -32.886810 3.301969 6.351717 -5.217829 22.923565 25.000000 -50.332893 14.585303 -25.765066 -3.908257 141.568817 -113.322632 12.839314 -13.395362 -51.584824 5.761086 -30.000000 25.000000 40.515221 11.961299 53.739674 50.500206 -159.513947 1.596397 -17.024656 5.972353 -88.245522 -52.893250 6.677046 11.889346 95.927185 10.399475 -0.928750 -37.864491 6.927299 6.353196 -58.734257 -5.380417 2.289057 90.686638 -4.452228 6.194306 -36.077141 -1.691902 15.749715 
0.237967 31.840080 -0.534010 3.147783 -16.529125 78.418175 0.000000 0.000000 0.000000 -0.859375 -0.009765 6.464991 8.178736 -1.975204 -0.180087 -32.898067 2.700371 5.826289 -5.264368 24.757753 25.000000 -45.303047 12.355273 -27.326981 1.142417 136.432663 -117.820641 21.017534 -12.731958 -51.819603 3.589573 -30.000000 25.000000 35.124096 15.819213 50.573952 54.740032 -157.867828 2.711671 -12.671300 4.194099 -86.582962 -51.134911 6.189000 12.174836 93.884705 12.186604 -0.541679 -38.146862 7.431110 11.319371 -56.132664 -4.111171 2.525425 88.042969 -4.159039 6.055849 -35.493519 -2.379470 16.186897 
0.540482 33.129654 -0.375010 1.761030 -16.389156 79.081192 0.000000 0.000000 0.000000 -2.725463 1.433924 6.816533 11.783576 -1.841614 -0.178499 -32.106007 1.858534 5.442790 -4.676140 27.380903 25.000000 -39.212315 9.206253 -28.781252 10.983655 130.812332 -128.040726 27.725332 -12.046505 -52.058876 -0.337048 -30.000000 23.400267 27.904922 19.740547 46.594509 61.279091 -153.408997 1.968621 -7.878293 3.399952 -85.143387 -47.422798 6.207750 13.035927 88.827904 13.994286 -0.132272 -35.486210 6.823263 9.475219 -51.597931 -3.417783 2.456913 82.697144 -3.046029 5.896787 -34.301517 -1.841746 16.329803 
1.071059 35.597492 -0.181542 0.112106 -16.621063 80.171555 0.000000 0.000000 0.000000 -6.054253 3.175585 7.242010 16.860401 -1.354571 -0.171056 -30.522692 0.848526 5.139990 -4.133419 30.000000 25.000000 -31.890556 5.819654 -30.331593 -153.766815 55.471947 36.033070 31.419083 -11.598562 -52.252865 -6.091979 -30.000000 19.329500 18.979361 22.868656 42.127438 72.232635 -147.382370 4.024880 -5.211596 5.063005 -84.620682 -40.194992 6.875051 14.792355 77.348869 15.399457 0.301225 -26.671564 2.280783 3.896593 -43.747627 -3.349216 2.014907 71.760971 -0.887714 5.466571 -27.363935 0.214528 17.700365 
1.610542 38.479202 -0.014862 -1.297711 -17.115005 81.248566 0.000000 0.000000 0.000000 -9.503348 4.584917 7.573292 21.592884 -0.557452 -0.129935 -28.837984 -0.116305 5.001165 -3.977821 30.000000 25.000000 -25.158226 3.574041 -31.649389 -134.729935 60.813969 17.324963 32.166878 -10.909727 -51.994396 -11.446763 -30.000000 15.433964 10.644040 24.482134 38.455978 -93.962563 -37.153702 -169.488724 -5.150601 8.198481 -84.815033 -31.452198 8.172062 16.797138 61.287567 14.525846 0.574191 -14.879308 -5.968201 3.590755 -34.787128 -3.231990 1.580176 56.814007 1.017102 4.506128 -15.683455 2.487554 18.846029 
2.029936 41.238605 0.086609 -2.142287 -17.683714 81.968277 0.000000 0.000000 0.000000 -12.331774 5.438753 7.758982 25.498205 0.164700 -0.100601 -27.750549 -0.998901 5.070967 -4.210150 30.000000 25.000000 -19.001671 3.343749 -32.903767 -111.597618 63.877117 -4.685123 31.046793 -8.836272 -50.743126 -15.297658 -30.000000 12.636005 2.934320 24.541803 35.772610 -79.117928 -38.769096 -160.729874 -6.262301 10.680884 -85.217148 -23.127556 9.505152 18.519070 43.959766 10.972672 0.535147 -2.953340 -13.466322 9.428327 -26.759672 -2.861089 1.313395 40.589294 1.474453 3.019338 -2.932651 3.868307 19.556499 
2.370382 44.066395 0.075914 -1.939205 -17.861509 82.497574 0.000000 0.000000 0.000000 -14.457371 5.287114 7.701936 29.260817 0.736084 -0.082413 -27.367502 -1.936736 5.262355 -4.825140 30.000000 25.000000 -12.474460 3.984636 -34.032070 -81.369331 62.691662 -33.525002 29.067003 -4.990639 -48.681820 -18.988300 -30.000000 9.756738 -5.726067 24.273954 33.285004 -60.734035 -36.564301 -150.420822 -6.199126 12.808804 -85.263077 -15.370187 9.539909 19.441778 27.349253 5.989441 0.366033 6.575532 -15.622226 17.276390 -19.406702 -3.368324 0.824971 24.730259 0.985926 1.403162 6.836773 3.940105 18.922071 
2.616159 46.975037 -0.135721 0.214350 -16.913950 83.218742 0.000000 0.000000 0.000000 -15.109875 3.054884 7.183555 32.625713 1.162262 -0.075795 -27.797997 -2.893867 5.637375 -5.929403 30.000000 25.000000 -6.034455 4.874603 -34.808041 -52.150219 54.455189 -61.091351 26.460890 0.784603 -46.156342 -23.634394 -30.000000 5.372924 -14.739528 23.802332 31.302084 -38.941349 -28.241371 -141.833817 -3.144457 15.419608 -84.385933 -9.500063 6.462227 18.883316 16.810816 2.290698 0.209168 7.375885 -11.027566 26.282104 -13.058244 -6.616999 -0.409744 13.621169 1.445171 0.558699 8.475827 1.868447 14.507392 
2.574860 48.508659 -0.163279 0.275479 -16.835756 83.433601 0.000000 0.000000 0.000000 -15.195880 2.912255 7.148856 33.216740 1.456527 -0.055469 -27.921017 -3.502452 5.910863 -6.401749 30.000000 25.000000 -3.721771 3.954884 -34.863998 -36.097206 46.356144 -73.120155 24.298405 6.401473 -44.063442 -27.862564 -30.000000 0.217356 -16.869061 22.884897 31.334063 -24.205027 -20.792946 -139.654510 1.624720 16.827312 -83.043556 -9.527066 6.937037 19.043905 17.814173 0.838588 -0.185914 4.261737 -9.841440 34.817070 -12.443133 -6.899903 -0.515255 12.926306 1.679231 0.535636 7.017488 1.120052 12.628430 
